#!OML:ASF G:\JayActor3\Patient Classification 1\Patient 1\Session 6\male.ASF
:FULLY-SPECIFIED
:DEGREES
757
root 5.15625 16.5511 -4.67097 325.518 -96.1428 -326.92
lowerback -0.758448 -0.291886 3.8471
upperback 1.34831 -0.485643 0.94857
thorax 1.78691 -0.204058 -1.1932
lowerneck -7.26415 0.273927 3.09228
upperneck -1.04301 0.0638156 -0.426467
head 0.891245 -0.00464648 -0.647682
rclavicle 3.61695e-015 7.40473e-015
rhumerus 6.50353 -28.0656 -21.8101
rradius 15.96
rwrist 21.7477
rhand -14.1812 -10.352
rfingers 7.12502
rthumb 11.9544 -39.9907
lclavicle 3.61695e-015 7.40473e-015
lhumerus -0.390276 -2.43762 11.5201
lradius 23.9876
lwrist 21.7086
lhand -16.7401 28.2746
lfingers 7.12502
lthumb 9.48612 58.041
rfemur -6.23022 3.02315 21.0232
rtibia 29.7581
rfoot -23.2322 -14.7756
rtoes 1.4333
lfemur 1.29026 5.43648 -13.7244
ltibia 16.6692
lfoot -15.0619 5.39726
ltoes -3.53956
758
root 5.15439 16.5502 -4.67591 325.525 -96.0769 -326.946
lowerback -0.782522 -0.315873 3.81039
upperback 1.37816 -0.518887 0.936636
thorax 1.82965 -0.219988 -1.18593
lowerneck -7.28876 0.275345 3.10323
upperneck -1.01045 0.0642132 -0.436419
head 0.905861 -0.00418814 -0.652855
rclavicle 2.59352e-015 -4.62174e-015
rhumerus 6.52826 -27.879 -21.8133
rradius 16.0119
rwrist 21.5072
rhand -14.037 -10.3617
rfingers 7.12502
rthumb 12.0934 -39.9922
lclavicle 2.59352e-015 -4.62174e-015
lhumerus -0.390205 -2.46175 11.5013
lradius 23.9786
lwrist 21.7913
lhand -16.6506 28.2592
lfingers 7.12502
lthumb 9.57251 58.0217
rfemur -6.20251 2.97541 20.9944
rtibia 29.7722
rfoot -23.2867 -14.731
rtoes 1.58481
lfemur 1.31359 5.38666 -13.7526
ltibia 16.6722
lfoot -15.0646 5.34862
ltoes -3.37538
759
root 5.1514 16.5493 -4.68387 324.418 -96.1429 -325.866
lowerback -0.791905 -0.315483 3.90936
upperback 1.40598 -0.523161 0.977651
thorax 1.86313 -0.220592 -1.19942
lowerneck -7.35014 0.274325 3.10028
upperneck -0.913131 0.0610679 -0.415166
head 0.947052 -0.00406487 -0.646443
rclavicle 2.1051e-015 -9.93923e-015
rhumerus 6.48443 -27.6017 -21.7668
rradius 16.0968
rwrist 21.1645
rhand -13.9424 -10.3853
rfingers 7.12502
rthumb 12.1846 -40.0104
lclavicle 2.1051e-015 -9.93923e-015
lhumerus -0.3355 -2.39759 11.5231
lradius 23.9351
lwrist 21.7919
lhand -16.5327 28.3722
lfingers 7.12502
lthumb 9.68621 58.1295
rfemur -6.15535 3.06884 21.1971
rtibia 29.787
rfoot -23.3352 -14.8586
rtoes 1.45584
lfemur 1.35912 5.37461 -13.5678
ltibia 16.6623
lfoot -15.0653 5.29702
ltoes -3.2335
760
root 5.14969 16.5495 -4.68878 324.086 -96.1273 -325.534
lowerback -0.783573 -0.321396 3.94304
upperback 1.40207 -0.531152 0.977804
thorax 1.85381 -0.224341 -1.2182
lowerneck -7.39686 0.257596 3.05059
upperneck -0.814868 0.0409773 -0.358232
head 0.985451 -0.0116469 -0.621433
rclavicle 3.62782e-015 -1.2424e-015
rhumerus 6.54922 -27.7867 -21.8644
rradius 16.0866
rwrist 21.335
rhand -13.8545 -10.4052
rfingers 7.12502
rthumb 12.2694 -40.0253
lclavicle 3.62782e-015 -1.2424e-015
lhumerus -0.304532 -2.43706 11.5368
lradius 23.9057
lwrist 21.883
lhand -16.4857 28.4225
lfingers 7.12502
lthumb 9.73158 58.1777
rfemur -6.14117 3.03956 21.2372
rtibia 29.7865
rfoot -23.3559 -14.8521
rtoes 1.60057
lfemur 1.35285 5.31937 -13.5329
ltibia 16.6847
lfoot -15.0831 5.28752
ltoes -3.18825
761
root 5.14831 16.5493 -4.69375 324.028 -96.0783 -325.478
lowerback -0.776412 -0.339153 3.92531
upperback 1.38997 -0.553433 0.971624
thorax 1.83626 -0.236019 -1.21504
lowerneck -7.38235 0.259211 3.02355
upperneck -0.758605 0.0464241 -0.342044
head 1.00075 -0.00757736 -0.611825
rclavicle -1.19892e-015 1.00883e-014
rhumerus 6.55869 -27.6385 -21.8816
rradius 16.1288
rwrist 21.177
rhand -13.7704 -10.3816
rfingers 7.12502
rthumb 12.3505 -39.9968
lclavicle -1.19892e-015 1.00883e-014
lhumerus -0.305539 -2.40927 11.5586
lradius 23.8494
lwrist 21.9208
lhand -16.4021 28.2669
lfingers 7.12502
lthumb 9.81225 58.0183
rfemur -6.12578 3.00942 21.2283
rtibia 29.7818
rfoot -23.3638 -14.8641
rtoes 1.57454
lfemur 1.33521 5.28809 -13.5451
ltibia 16.72
lfoot -15.0927 5.25835
ltoes -3.11644
762
root 5.14757 16.5495 -4.69877 323.753 -96.0632 -325.199
lowerback -0.759396 -0.351907 3.94278
upperback 1.37487 -0.56952 0.978036
thorax 1.8103 -0.244499 -1.21841
lowerneck -7.44877 0.256901 2.98174
upperneck -0.631586 0.0445993 -0.304917
head 1.05225 -0.00596573 -0.593963
rclavicle -5.71894e-015 2.03754e-014
rhumerus 6.5724 -27.4898 -21.8979
rradius 16.1724
rwrist 21.0044
rhand -13.6662 -10.3525
rfingers 7.12502
rthumb 12.4509 -39.9616
lclavicle -5.71894e-015 2.03754e-014
lhumerus -0.3147 -2.54202 11.5736
lradius 23.8532
lwrist 22.1819
lhand -16.4525 28.3494
lfingers 7.12502
lthumb 9.76361 58.1031
rfemur -6.1335 2.97815 21.2637
rtibia 29.8043
rfoot -23.4078 -14.8488
rtoes 1.61409
lfemur 1.34043 5.23854 -13.5153
ltibia 16.7001
lfoot -15.0878 5.23067
ltoes -3.01391
763
root 5.14668 16.5497 -4.70395 323.47 -96.061 -324.895
lowerback -0.78652 -0.351741 3.96466
upperback 1.38228 -0.571642 0.986679
thorax 1.83301 -0.244914 -1.22205
lowerneck -7.46957 0.251603 2.97513
upperneck -0.599099 0.0375169 -0.302791
head 1.06604 -0.00899235 -0.592603
rclavicle -2.66962e-015 -1.14301e-014
rhumerus 6.58292 -27.4182 -21.9078
rradius 16.1958
rwrist 20.8876
rhand -13.6001 -10.3001
rfingers 7.12502
rthumb 12.5147 -39.9053
lclavicle -2.66962e-015 -1.14301e-014
lhumerus -0.277952 -2.57746 11.6179
lradius 23.8555
lwrist 22.3982
lhand -16.544 28.6119
lfingers 7.12502
lthumb 9.67533 58.3697
rfemur -6.16231 2.94386 21.3092
rtibia 29.8327
rfoot -23.4011 -14.8603
rtoes 1.63306
lfemur 1.33691 5.20624 -13.4743
ltibia 16.6668
lfoot -15.0622 5.22574
ltoes -2.97872
764
root 5.14507 16.5494 -4.70875 324.279 -95.9718 -325.709
lowerback -0.79229 -0.360483 3.84188
upperback 1.38212 -0.580185 0.956035
thorax 1.83622 -0.250288 -1.1851
lowerneck -7.51687 0.243345 2.98635
upperneck -0.514681 0.0250205 -0.331965
head 1.10108 -0.0144969 -0.60453
rclavicle -1.17547e-014 9.93923e-016
rhumerus 6.6116 -27.3638 -21.9434
rradius 16.2177
rwrist 20.8431
rhand -13.5407 -10.2991
rfingers 7.12502
rthumb 12.5719 -39.9009
lclavicle -1.17547e-014 9.93923e-016
lhumerus -0.260468 -2.58285 11.6585
lradius 23.7947
lwrist 22.4977
lhand -16.5535 28.563
lfingers 7.12502
lthumb 9.66615 58.3213
rfemur -6.16412 2.85701 21.1793
rtibia 29.8499
rfoot -23.3864 -14.8033
rtoes 1.5452
lfemur 1.34857 5.17667 -13.5972
ltibia 16.6664
lfoot -15.0768 5.20414
ltoes -2.88188
765
root 5.14427 16.5493 -4.71525 324.174 -95.9592 -325.592
lowerback -0.798122 -0.359737 3.82544
upperback 1.37834 -0.579046 0.957996
thorax 1.8358 -0.249987 -1.1739
lowerneck -7.57644 0.24626 2.97507
upperneck -0.400255 0.027753 -0.302124
head 1.14782 -0.0109546 -0.593888
rclavicle -1.18052e-014 -5.01931e-015
rhumerus 6.65496 -27.4483 -22.0069
rradius 16.1987
rwrist 20.9837
rhand -13.4664 -10.2964
rfingers 7.12502
rthumb 12.6436 -39.8937
lclavicle -1.18052e-014 -5.01931e-015
lhumerus -0.236154 -2.51461 11.6965
lradius 23.7549
lwrist 22.4092
lhand -16.4129 28.7286
lfingers 7.12502
lthumb 9.80185 58.4805
rfemur -6.17382 2.8904 21.2198
rtibia 29.8676
rfoot -23.4343 -14.8501
rtoes 1.62892
lfemur 1.3407 5.1468 -13.5745
ltibia 16.6558
lfoot -15.0886 5.18458
ltoes -2.70309
766
root 5.14367 16.5486 -4.72074 323.33 -96.034 -324.763
lowerback -0.785117 -0.357344 3.92369
upperback 1.40016 -0.579313 0.998577
thorax 1.85066 -0.248983 -1.18717
lowerneck -7.65832 0.249764 2.95542
upperneck -0.316098 0.0312294 -0.293856
head 1.18892 -0.00800938 -0.588485
rclavicle -8.52212e-015 2.78299e-015
rhumerus 6.66677 -27.2523 -21.9853
rradius 16.2257
rwrist 20.8639
rhand -13.3979 -10.3104
rfingers 7.12502
rthumb 12.7096 -39.9037
lclavicle -8.52212e-015 2.78299e-015
lhumerus -0.208949 -2.41925 11.7585
lradius 23.688
lwrist 22.3674
lhand -16.3201 28.4612
lfingers 7.12502
lthumb 9.89136 58.2088
rfemur -6.15752 2.87896 21.3678
rtibia 29.8788
rfoot -23.4355 -14.8535
rtoes 1.53876
lfemur 1.37817 5.11475 -13.4289
ltibia 16.6404
lfoot -15.0849 5.196
ltoes -2.71971
767
root 5.14203 16.5476 -4.72647 323.353 -95.9998 -324.808
lowerback -0.787453 -0.369003 3.88787
upperback 1.41795 -0.594657 0.988144
thorax 1.86968 -0.256501 -1.17829
lowerneck -7.69429 0.252574 2.97126
upperneck -0.24117 0.0327228 -0.295475
head 1.21927 -0.00619814 -0.592071
rclavicle 1.06451e-014 -6.16232e-015
rhumerus 6.69542 -27.2028 -22.0326
rradius 16.2325
rwrist 20.9226
rhand -13.3356 -10.3637
rfingers 7.12502
rthumb 12.7697 -39.9532
lclavicle 1.06451e-014 -6.16232e-015
lhumerus -0.204041 -2.44586 11.7703
lradius 23.7035
lwrist 22.4253
lhand -16.2327 28.6866
lfingers 7.12502
lthumb 9.97562 58.4302
rfemur -6.12778 2.83908 21.3595
rtibia 29.8878
rfoot -23.4637 -14.8144
rtoes 1.62074
lfemur 1.40929 5.11099 -13.4294
ltibia 16.6408
lfoot -15.0948 5.15192
ltoes -2.60106
768
root 5.14115 16.5475 -4.73347 323.42 -95.9903 -324.874
lowerback -0.784222 -0.367027 3.84892
upperback 1.42145 -0.591141 0.985599
thorax 1.87191 -0.255162 -1.15904
lowerneck -7.72794 0.24462 2.9585
upperneck -0.186103 0.0218262 -0.274771
head 1.24248 -0.0104815 -0.584124
rclavicle 9.65348e-015 -1.14301e-014
rhumerus 6.65056 -26.94 -21.9891
rradius 16.2746
rwrist 20.795
rhand -13.2593 -10.4467
rfingers 7.12502
rthumb 12.8432 -40.0316
lclavicle 9.65348e-015 -1.14301e-014
lhumerus -0.193242 -2.51827 11.7848
lradius 23.7416
lwrist 22.4792
lhand -16.1892 28.7865
lfingers 7.12502
lthumb 10.0176 58.5281
rfemur -6.1251 2.88759 21.3813
rtibia 29.8911
rfoot -23.5013 -14.8384
rtoes 1.67082
lfemur 1.4026 5.05878 -13.4226
ltibia 16.6499
lfoot -15.1107 5.17791
ltoes -2.57238
